<?xml version="1.0" encoding="UTF-8" standalone="no"?><svg xmlns="http://www.w3.org/2000/svg" xmlns:xlink="http://www.w3.org/1999/xlink" contentStyleType="text/css" height="1403px" preserveAspectRatio="none" style="width:1392px;height:1403px;background:#FFFFFF;" version="1.1" viewBox="0 0 1392 1403" width="1392px" zoomAndPan="magnify"><defs/><g><text fill="#000000" font-family="sans-serif" font-size="14" font-weight="bold" lengthAdjust="spacing" textLength="117" x="633.75" y="27.9951">Resume Coach</text><line style="stroke:#181818;stroke-width:0.5;stroke-dasharray:5.0,5.0;" x1="28" x2="28" y1="73.5938" y2="1368.1719"/><line style="stroke:#181818;stroke-width:0.5;stroke-dasharray:5.0,5.0;" x1="174.5" x2="174.5" y1="73.5938" y2="1368.1719"/><line style="stroke:#181818;stroke-width:0.5;stroke-dasharray:5.0,5.0;" x1="353.5" x2="353.5" y1="73.5938" y2="1368.1719"/><line style="stroke:#181818;stroke-width:0.5;stroke-dasharray:5.0,5.0;" x1="561" x2="561" y1="73.5938" y2="1368.1719"/><line style="stroke:#181818;stroke-width:0.5;stroke-dasharray:5.0,5.0;" x1="851" x2="851" y1="73.5938" y2="1368.1719"/><line style="stroke:#181818;stroke-width:0.5;stroke-dasharray:5.0,5.0;" x1="1089.5" x2="1089.5" y1="73.5938" y2="1368.1719"/><line style="stroke:#181818;stroke-width:0.5;stroke-dasharray:5.0,5.0;" x1="1164.5" x2="1164.5" y1="73.5938" y2="1368.1719"/><rect fill="#E2E2F0" height="30.2969" rx="2.5" ry="2.5" style="stroke:#181818;stroke-width:0.5;" width="46" x="5" y="42.2969"/><text fill="#000000" font-family="sans-serif" font-size="14" lengthAdjust="spacing" textLength="32" x="12" y="62.292">User</text><rect fill="#E2E2F0" height="30.2969" rx="2.5" ry="2.5" style="stroke:#181818;stroke-width:0.5;" width="46" x="5" y="1367.1719"/><text fill="#000000" font-family="sans-serif" font-size="14" lengthAdjust="spacing" textLength="32" x="12" y="1387.167">User</text><rect fill="#E2E2F0" height="30.2969" rx="2.5" ry="2.5" style="stroke:#181818;stroke-width:0.5;" width="71" x="139.5" y="42.2969"/><text fill="#000000" font-family="sans-serif" font-size="14" lengthAdjust="spacing" textLength="57" x="146.5" y="62.292">Browser</text><rect fill="#E2E2F0" height="30.2969" rx="2.5" ry="2.5" style="stroke:#181818;stroke-width:0.5;" width="71" x="139.5" y="1367.1719"/><text fill="#000000" font-family="sans-serif" font-size="14" lengthAdjust="spacing" textLength="57" x="146.5" y="1387.167">Browser</text><rect fill="#E2E2F0" height="30.2969" rx="2.5" ry="2.5" style="stroke:#181818;stroke-width:0.5;" width="67" x="320.5" y="42.2969"/><text fill="#000000" font-family="sans-serif" font-size="14" lengthAdjust="spacing" textLength="53" x="327.5" y="62.292">RestApi</text><rect fill="#E2E2F0" height="30.2969" rx="2.5" ry="2.5" style="stroke:#181818;stroke-width:0.5;" width="67" x="320.5" y="1367.1719"/><text fill="#000000" font-family="sans-serif" font-size="14" lengthAdjust="spacing" textLength="53" x="327.5" y="1387.167">RestApi</text><rect fill="#E2E2F0" height="30.2969" rx="2.5" ry="2.5" style="stroke:#181818;stroke-width:0.5;" width="176" x="473" y="42.2969"/><text fill="#000000" font-family="sans-serif" font-size="14" lengthAdjust="spacing" textLength="162" x="480" y="62.292">resume_coach_main.py</text><rect fill="#E2E2F0" height="30.2969" rx="2.5" ry="2.5" style="stroke:#181818;stroke-width:0.5;" width="176" x="473" y="1367.1719"/><text fill="#000000" font-family="sans-serif" font-size="14" lengthAdjust="spacing" textLength="162" x="480" y="1387.167">resume_coach_main.py</text><rect fill="#E2E2F0" height="30.2969" rx="2.5" ry="2.5" style="stroke:#181818;stroke-width:0.5;" width="86" x="808" y="42.2969"/><text fill="#000000" font-family="sans-serif" font-size="14" lengthAdjust="spacing" textLength="72" x="815" y="62.292">LangChain</text><rect fill="#E2E2F0" height="30.2969" rx="2.5" ry="2.5" style="stroke:#181818;stroke-width:0.5;" width="86" x="808" y="1367.1719"/><text fill="#000000" font-family="sans-serif" font-size="14" lengthAdjust="spacing" textLength="72" x="815" y="1387.167">LangChain</text><rect fill="#E2E2F0" height="30.2969" rx="2.5" ry="2.5" style="stroke:#181818;stroke-width:0.5;" width="89" x="1045.5" y="42.2969"/><text fill="#000000" font-family="sans-serif" font-size="14" lengthAdjust="spacing" textLength="75" x="1052.5" y="62.292">ChromaDB</text><rect fill="#E2E2F0" height="30.2969" rx="2.5" ry="2.5" style="stroke:#181818;stroke-width:0.5;" width="89" x="1045.5" y="1367.1719"/><text fill="#000000" font-family="sans-serif" font-size="14" lengthAdjust="spacing" textLength="75" x="1052.5" y="1387.167">ChromaDB</text><rect fill="#E2E2F0" height="30.2969" rx="2.5" ry="2.5" style="stroke:#181818;stroke-width:0.5;" width="40" x="1144.5" y="42.2969"/><text fill="#000000" font-family="sans-serif" font-size="14" lengthAdjust="spacing" textLength="26" x="1151.5" y="62.292">LLM</text><rect fill="#E2E2F0" height="30.2969" rx="2.5" ry="2.5" style="stroke:#181818;stroke-width:0.5;" width="40" x="1144.5" y="1367.1719"/><text fill="#000000" font-family="sans-serif" font-size="14" lengthAdjust="spacing" textLength="26" x="1151.5" y="1387.167">LLM</text><rect fill="#EEEEEE" height="3" style="stroke:#EEEEEE;stroke-width:1.0;" width="1385.5" x="0" y="104.1602"/><line style="stroke:#000000;stroke-width:1.0;" x1="0" x2="1385.5" y1="104.1602" y2="104.1602"/><line style="stroke:#000000;stroke-width:1.0;" x1="0" x2="1385.5" y1="107.1602" y2="107.1602"/><rect fill="#EEEEEE" height="23.1328" style="stroke:#000000;stroke-width:2.0;" width="166" x="609.75" y="93.5938"/><text fill="#000000" font-family="sans-serif" font-size="13" font-weight="bold" lengthAdjust="spacing" textLength="147" x="615.75" y="109.6606">Step 0. Introduction</text><line style="stroke:#181818;stroke-width:1.0;" x1="28" x2="70" y1="162.9922" y2="162.9922"/><line style="stroke:#181818;stroke-width:1.0;" x1="70" x2="70" y1="162.9922" y2="175.9922"/><line style="stroke:#181818;stroke-width:1.0;" x1="29" x2="70" y1="175.9922" y2="175.9922"/><polygon fill="#181818" points="39,171.9922,29,175.9922,39,179.9922,35,175.9922" style="stroke:#181818;stroke-width:1.0;"/><text fill="#000000" font-family="sans-serif" font-size="13" font-weight="bold" lengthAdjust="spacing" textLength="9" x="35" y="150.3599">1</text><text fill="#000000" font-family="sans-serif" font-size="13" lengthAdjust="spacing" textLength="92" x="48" y="142.7935">EndUser using</text><text fill="#000000" font-family="sans-serif" font-size="13" lengthAdjust="spacing" textLength="120" x="48" y="157.9263">ResumeCoach tool</text><line style="stroke:#181818;stroke-width:1.0;" x1="175" x2="217" y1="220.2578" y2="220.2578"/><line style="stroke:#181818;stroke-width:1.0;" x1="217" x2="217" y1="220.2578" y2="233.2578"/><line style="stroke:#181818;stroke-width:1.0;" x1="176" x2="217" y1="233.2578" y2="233.2578"/><polygon fill="#181818" points="186,229.2578,176,233.2578,186,237.2578,182,233.2578" style="stroke:#181818;stroke-width:1.0;"/><text fill="#000000" font-family="sans-serif" font-size="13" font-weight="bold" lengthAdjust="spacing" textLength="9" x="182" y="207.6255">2</text><text fill="#000000" font-family="sans-serif" font-size="13" lengthAdjust="spacing" textLength="114" x="195" y="200.0591">app.py,index.html</text><text fill="#000000" font-family="sans-serif" font-size="13" lengthAdjust="spacing" textLength="64" x="195" y="215.1919">static files</text><line style="stroke:#181818;stroke-width:1.0;" x1="354" x2="396" y1="277.5234" y2="277.5234"/><line style="stroke:#181818;stroke-width:1.0;" x1="396" x2="396" y1="277.5234" y2="290.5234"/><line style="stroke:#181818;stroke-width:1.0;" x1="355" x2="396" y1="290.5234" y2="290.5234"/><polygon fill="#181818" points="365,286.5234,355,290.5234,365,294.5234,361,290.5234" style="stroke:#181818;stroke-width:1.0;"/><text fill="#000000" font-family="sans-serif" font-size="13" font-weight="bold" lengthAdjust="spacing" textLength="9" x="361" y="264.8911">3</text><text fill="#000000" font-family="sans-serif" font-size="13" lengthAdjust="spacing" textLength="168" x="374" y="257.3247">clientApp.py - python/flask</text><text fill="#000000" font-family="sans-serif" font-size="13" lengthAdjust="spacing" textLength="93" x="374" y="272.4575">mediator layer</text><line style="stroke:#181818;stroke-width:1.0;" x1="1164.5" x2="1206.5" y1="334.7891" y2="334.7891"/><line style="stroke:#181818;stroke-width:1.0;" x1="1206.5" x2="1206.5" y1="334.7891" y2="347.7891"/><line style="stroke:#181818;stroke-width:1.0;" x1="1165.5" x2="1206.5" y1="347.7891" y2="347.7891"/><polygon fill="#181818" points="1175.5,343.7891,1165.5,347.7891,1175.5,351.7891,1171.5,347.7891" style="stroke:#181818;stroke-width:1.0;"/><text fill="#000000" font-family="sans-serif" font-size="13" font-weight="bold" lengthAdjust="spacing" textLength="9" x="1171.5" y="322.1567">4</text><text fill="#000000" font-family="sans-serif" font-size="13" lengthAdjust="spacing" textLength="194" x="1184.5" y="314.5903">gpt-4o-mini model embedding</text><text fill="#000000" font-family="sans-serif" font-size="13" lengthAdjust="spacing" textLength="154" x="1184.5" y="329.7231">text-embedding-3-small</text><rect fill="#EEEEEE" height="3" style="stroke:#EEEEEE;stroke-width:1.0;" width="1385.5" x="0" y="376.3555"/><line style="stroke:#000000;stroke-width:1.0;" x1="0" x2="1385.5" y1="376.3555" y2="376.3555"/><line style="stroke:#000000;stroke-width:1.0;" x1="0" x2="1385.5" y1="379.3555" y2="379.3555"/><rect fill="#EEEEEE" height="23.1328" style="stroke:#000000;stroke-width:2.0;" width="268" x="558.75" y="365.7891"/><text fill="#000000" font-family="sans-serif" font-size="13" font-weight="bold" lengthAdjust="spacing" textLength="249" x="564.75" y="381.856">Step 1. Upload and Preview input</text><polygon fill="#181818" points="163,416.0547,173,420.0547,163,424.0547,167,420.0547" style="stroke:#181818;stroke-width:1.0;"/><line style="stroke:#181818;stroke-width:1.0;" x1="28" x2="169" y1="420.0547" y2="420.0547"/><text fill="#000000" font-family="sans-serif" font-size="13" font-weight="bold" lengthAdjust="spacing" textLength="9" x="35" y="414.9888">5</text><text fill="#000000" font-family="sans-serif" font-size="13" lengthAdjust="spacing" textLength="103" x="48" y="414.9888">uploads resume</text><polygon fill="#181818" points="163,445.1875,173,449.1875,163,453.1875,167,449.1875" style="stroke:#181818;stroke-width:1.0;"/><line style="stroke:#181818;stroke-width:1.0;" x1="28" x2="169" y1="449.1875" y2="449.1875"/><text fill="#000000" font-family="sans-serif" font-size="13" font-weight="bold" lengthAdjust="spacing" textLength="9" x="35" y="444.1216">6</text><text fill="#000000" font-family="sans-serif" font-size="13" lengthAdjust="spacing" textLength="67" x="48" y="444.1216">uploads JD</text><polygon fill="#181818" points="163,474.3203,173,478.3203,163,482.3203,167,478.3203" style="stroke:#181818;stroke-width:1.0;"/><line style="stroke:#181818;stroke-width:1.0;" x1="28" x2="169" y1="478.3203" y2="478.3203"/><text fill="#000000" font-family="sans-serif" font-size="13" font-weight="bold" lengthAdjust="spacing" textLength="9" x="35" y="473.2544">7</text><text fill="#000000" font-family="sans-serif" font-size="13" lengthAdjust="spacing" textLength="77" x="48" y="473.2544">Preview files</text><polygon fill="#181818" points="342,503.4531,352,507.4531,342,511.4531,346,507.4531" style="stroke:#181818;stroke-width:1.0;"/><line style="stroke:#181818;stroke-width:1.0;" x1="175" x2="348" y1="507.4531" y2="507.4531"/><text fill="#000000" font-family="sans-serif" font-size="13" font-weight="bold" lengthAdjust="spacing" textLength="9" x="182" y="502.3872">8</text><text fill="#000000" font-family="sans-serif" font-size="13" lengthAdjust="spacing" textLength="85" x="195" y="502.3872">POST /upload</text><polygon fill="#181818" points="839,532.5859,849,536.5859,839,540.5859,843,536.5859" style="stroke:#181818;stroke-width:1.0;"/><line style="stroke:#181818;stroke-width:1.0;" x1="561" x2="845" y1="536.5859" y2="536.5859"/><text fill="#000000" font-family="sans-serif" font-size="13" font-weight="bold" lengthAdjust="spacing" textLength="9" x="568" y="531.52">9</text><text fill="#000000" font-family="sans-serif" font-size="13" lengthAdjust="spacing" textLength="80" x="581" y="531.52">Initialize LLM</text><polygon fill="#181818" points="1078,561.7188,1088,565.7188,1078,569.7188,1082,565.7188" style="stroke:#181818;stroke-width:1.0;"/><line style="stroke:#181818;stroke-width:1.0;" x1="561" x2="1084" y1="565.7188" y2="565.7188"/><text fill="#000000" font-family="sans-serif" font-size="13" font-weight="bold" lengthAdjust="spacing" textLength="18" x="568" y="560.6528">10</text><text fill="#000000" font-family="sans-serif" font-size="13" lengthAdjust="spacing" textLength="140" x="590" y="560.6528">Build job store Corpus</text><line style="stroke:#181818;stroke-width:1.0;" x1="354" x2="396" y1="594.8516" y2="594.8516"/><line style="stroke:#181818;stroke-width:1.0;" x1="396" x2="396" y1="594.8516" y2="607.8516"/><line style="stroke:#181818;stroke-width:1.0;" x1="355" x2="396" y1="607.8516" y2="607.8516"/><polygon fill="#181818" points="365,603.8516,355,607.8516,365,611.8516,361,607.8516" style="stroke:#181818;stroke-width:1.0;"/><text fill="#000000" font-family="sans-serif" font-size="13" font-weight="bold" lengthAdjust="spacing" textLength="18" x="361" y="589.7856">11</text><text fill="#000000" font-family="sans-serif" font-size="13" lengthAdjust="spacing" textLength="106" x="383" y="589.7856">Parse pdf to text</text><polygon fill="#181818" points="186,632.9844,176,636.9844,186,640.9844,182,636.9844" style="stroke:#181818;stroke-width:1.0;"/><line style="stroke:#181818;stroke-width:1.0;" x1="180" x2="353" y1="636.9844" y2="636.9844"/><text fill="#000000" font-family="sans-serif" font-size="13" font-weight="bold" lengthAdjust="spacing" textLength="18" x="192" y="631.9185">12</text><text fill="#000000" font-family="sans-serif" font-size="13" lengthAdjust="spacing" textLength="133" x="214" y="631.9185">Presents Resume, JD</text><rect fill="#EEEEEE" height="3" style="stroke:#EEEEEE;stroke-width:1.0;" width="1385.5" x="0" y="665.5508"/><line style="stroke:#000000;stroke-width:1.0;" x1="0" x2="1385.5" y1="665.5508" y2="665.5508"/><line style="stroke:#000000;stroke-width:1.0;" x1="0" x2="1385.5" y1="668.5508" y2="668.5508"/><rect fill="#EEEEEE" height="23.1328" style="stroke:#000000;stroke-width:2.0;" width="189" x="598.25" y="654.9844"/><text fill="#000000" font-family="sans-serif" font-size="13" font-weight="bold" lengthAdjust="spacing" textLength="170" x="604.25" y="671.0513">Step 2. Present Report</text><polygon fill="#181818" points="163,705.25,173,709.25,163,713.25,167,709.25" style="stroke:#181818;stroke-width:1.0;"/><line style="stroke:#181818;stroke-width:1.0;" x1="28" x2="169" y1="709.25" y2="709.25"/><text fill="#000000" font-family="sans-serif" font-size="13" font-weight="bold" lengthAdjust="spacing" textLength="18" x="35" y="704.1841">13</text><text fill="#000000" font-family="sans-serif" font-size="13" lengthAdjust="spacing" textLength="69" x="57" y="704.1841">Get Report</text><polygon fill="#181818" points="342,734.3828,352,738.3828,342,742.3828,346,738.3828" style="stroke:#181818;stroke-width:1.0;"/><line style="stroke:#181818;stroke-width:1.0;" x1="175" x2="348" y1="738.3828" y2="738.3828"/><text fill="#000000" font-family="sans-serif" font-size="13" font-weight="bold" lengthAdjust="spacing" textLength="18" x="182" y="733.3169">14</text><text fill="#000000" font-family="sans-serif" font-size="13" lengthAdjust="spacing" textLength="72" x="204" y="733.3169">GET /report</text><polygon fill="#181818" points="549,763.5156,559,767.5156,549,771.5156,553,767.5156" style="stroke:#181818;stroke-width:1.0;"/><line style="stroke:#181818;stroke-width:1.0;" x1="354" x2="555" y1="767.5156" y2="767.5156"/><text fill="#000000" font-family="sans-serif" font-size="13" font-weight="bold" lengthAdjust="spacing" textLength="18" x="361" y="762.4497">15</text><text fill="#000000" font-family="sans-serif" font-size="13" lengthAdjust="spacing" textLength="125" x="383" y="762.4497">Get Resume Report</text><polygon fill="#181818" points="839,792.6484,849,796.6484,839,800.6484,843,796.6484" style="stroke:#181818;stroke-width:1.0;"/><line style="stroke:#181818;stroke-width:1.0;" x1="561" x2="845" y1="796.6484" y2="796.6484"/><text fill="#000000" font-family="sans-serif" font-size="13" font-weight="bold" lengthAdjust="spacing" textLength="18" x="568" y="791.5825">16</text><text fill="#000000" font-family="sans-serif" font-size="13" lengthAdjust="spacing" textLength="244" x="590" y="791.5825">Build Prompt, Chat History, RAG Chain</text><polygon fill="#181818" points="1152.5,821.7813,1162.5,825.7813,1152.5,829.7813,1156.5,825.7813" style="stroke:#181818;stroke-width:1.0;"/><line style="stroke:#181818;stroke-width:1.0;" x1="851" x2="1158.5" y1="825.7813" y2="825.7813"/><text fill="#000000" font-family="sans-serif" font-size="13" font-weight="bold" lengthAdjust="spacing" textLength="18" x="858" y="820.7153">17</text><text fill="#000000" font-family="sans-serif" font-size="13" lengthAdjust="spacing" textLength="52" x="880" y="820.7153">Q And A</text><polygon fill="#181818" points="186,850.9141,176,854.9141,186,858.9141,182,854.9141" style="stroke:#181818;stroke-width:1.0;"/><line style="stroke:#181818;stroke-width:1.0;" x1="180" x2="1163.5" y1="854.9141" y2="854.9141"/><text fill="#000000" font-family="sans-serif" font-size="13" font-weight="bold" lengthAdjust="spacing" textLength="18" x="192" y="849.8481">18</text><text fill="#000000" font-family="sans-serif" font-size="13" lengthAdjust="spacing" textLength="363" x="214" y="849.8481">Respond with Resume Report (passing through all layers)</text><polygon fill="#181818" points="549,880.0469,559,884.0469,549,888.0469,553,884.0469" style="stroke:#181818;stroke-width:1.0;"/><line style="stroke:#181818;stroke-width:1.0;" x1="354" x2="555" y1="884.0469" y2="884.0469"/><text fill="#000000" font-family="sans-serif" font-size="13" font-weight="bold" lengthAdjust="spacing" textLength="18" x="361" y="878.981">19</text><text fill="#000000" font-family="sans-serif" font-size="13" lengthAdjust="spacing" textLength="86" x="383" y="878.981">Get JD Report</text><polygon fill="#181818" points="839,909.1797,849,913.1797,839,917.1797,843,913.1797" style="stroke:#181818;stroke-width:1.0;"/><line style="stroke:#181818;stroke-width:1.0;" x1="561" x2="845" y1="913.1797" y2="913.1797"/><text fill="#000000" font-family="sans-serif" font-size="13" font-weight="bold" lengthAdjust="spacing" textLength="18" x="568" y="908.1138">20</text><text fill="#000000" font-family="sans-serif" font-size="13" lengthAdjust="spacing" textLength="244" x="590" y="908.1138">Build Prompt, Chat History, RAG Chain</text><polygon fill="#181818" points="1152.5,938.3125,1162.5,942.3125,1152.5,946.3125,1156.5,942.3125" style="stroke:#181818;stroke-width:1.0;"/><line style="stroke:#181818;stroke-width:1.0;" x1="851" x2="1158.5" y1="942.3125" y2="942.3125"/><text fill="#000000" font-family="sans-serif" font-size="13" font-weight="bold" lengthAdjust="spacing" textLength="18" x="858" y="937.2466">21</text><text fill="#000000" font-family="sans-serif" font-size="13" lengthAdjust="spacing" textLength="52" x="880" y="937.2466">Q And A</text><polygon fill="#181818" points="186,967.4453,176,971.4453,186,975.4453,182,971.4453" style="stroke:#181818;stroke-width:1.0;"/><line style="stroke:#181818;stroke-width:1.0;" x1="180" x2="1163.5" y1="971.4453" y2="971.4453"/><text fill="#000000" font-family="sans-serif" font-size="13" font-weight="bold" lengthAdjust="spacing" textLength="18" x="192" y="966.3794">22</text><text fill="#000000" font-family="sans-serif" font-size="13" lengthAdjust="spacing" textLength="324" x="214" y="966.3794">Respond with JD Report (passing through all layers)</text><polygon fill="#181818" points="549,996.5781,559,1000.5781,549,1004.5781,553,1000.5781" style="stroke:#181818;stroke-width:1.0;"/><line style="stroke:#181818;stroke-width:1.0;" x1="354" x2="555" y1="1000.5781" y2="1000.5781"/><text fill="#000000" font-family="sans-serif" font-size="13" font-weight="bold" lengthAdjust="spacing" textLength="18" x="361" y="995.5122">23</text><text fill="#000000" font-family="sans-serif" font-size="13" lengthAdjust="spacing" textLength="161" x="383" y="995.5122">Get Matching Jobs Report</text><polygon fill="#181818" points="839,1025.7109,849,1029.7109,839,1033.7109,843,1029.7109" style="stroke:#181818;stroke-width:1.0;"/><line style="stroke:#181818;stroke-width:1.0;" x1="561" x2="845" y1="1029.7109" y2="1029.7109"/><text fill="#000000" font-family="sans-serif" font-size="13" font-weight="bold" lengthAdjust="spacing" textLength="18" x="568" y="1024.645">24</text><text fill="#000000" font-family="sans-serif" font-size="13" lengthAdjust="spacing" textLength="197" x="590" y="1024.645">Reformat resume into sections</text><polygon fill="#181818" points="1152.5,1054.8438,1162.5,1058.8438,1152.5,1062.8438,1156.5,1058.8438" style="stroke:#181818;stroke-width:1.0;"/><line style="stroke:#181818;stroke-width:1.0;" x1="851" x2="1158.5" y1="1058.8438" y2="1058.8438"/><text fill="#000000" font-family="sans-serif" font-size="13" font-weight="bold" lengthAdjust="spacing" textLength="18" x="858" y="1053.7778">25</text><text fill="#000000" font-family="sans-serif" font-size="13" lengthAdjust="spacing" textLength="52" x="880" y="1053.7778">Q And A</text><polygon fill="#181818" points="186,1083.9766,176,1087.9766,186,1091.9766,182,1087.9766" style="stroke:#181818;stroke-width:1.0;"/><line style="stroke:#181818;stroke-width:1.0;" x1="180" x2="1163.5" y1="1087.9766" y2="1087.9766"/><text fill="#000000" font-family="sans-serif" font-size="13" font-weight="bold" lengthAdjust="spacing" textLength="18" x="192" y="1082.9106">26</text><text fill="#000000" font-family="sans-serif" font-size="13" lengthAdjust="spacing" textLength="395" x="214" y="1082.9106">Respond with reformatted resume (passing through all layers)</text><polygon fill="#181818" points="1078,1113.1094,1088,1117.1094,1078,1121.1094,1082,1117.1094" style="stroke:#181818;stroke-width:1.0;"/><line style="stroke:#181818;stroke-width:1.0;" x1="851" x2="1084" y1="1117.1094" y2="1117.1094"/><text fill="#000000" font-family="sans-serif" font-size="13" font-weight="bold" lengthAdjust="spacing" textLength="18" x="858" y="1112.0435">27</text><text fill="#000000" font-family="sans-serif" font-size="13" lengthAdjust="spacing" textLength="193" x="880" y="1112.0435">Find jobs with similarity search</text><polygon fill="#181818" points="186,1142.2422,176,1146.2422,186,1150.2422,182,1146.2422" style="stroke:#181818;stroke-width:1.0;"/><line style="stroke:#181818;stroke-width:1.0;" x1="180" x2="1089" y1="1146.2422" y2="1146.2422"/><text fill="#000000" font-family="sans-serif" font-size="13" font-weight="bold" lengthAdjust="spacing" textLength="18" x="192" y="1141.1763">28</text><text fill="#000000" font-family="sans-serif" font-size="13" lengthAdjust="spacing" textLength="340" x="214" y="1141.1763">Respond with related jobs (passing through all layers)</text><rect fill="#EEEEEE" height="3" style="stroke:#EEEEEE;stroke-width:1.0;" width="1385.5" x="0" y="1174.8086"/><line style="stroke:#000000;stroke-width:1.0;" x1="0" x2="1385.5" y1="1174.8086" y2="1174.8086"/><line style="stroke:#000000;stroke-width:1.0;" x1="0" x2="1385.5" y1="1177.8086" y2="1177.8086"/><rect fill="#EEEEEE" height="23.1328" style="stroke:#000000;stroke-width:2.0;" width="111" x="637.25" y="1164.2422"/><text fill="#000000" font-family="sans-serif" font-size="13" font-weight="bold" lengthAdjust="spacing" textLength="92" x="643.25" y="1180.3091">Step 3. Chat</text><polygon fill="#181818" points="163,1214.5078,173,1218.5078,163,1222.5078,167,1218.5078" style="stroke:#181818;stroke-width:1.0;"/><line style="stroke:#181818;stroke-width:1.0;" x1="28" x2="169" y1="1218.5078" y2="1218.5078"/><text fill="#000000" font-family="sans-serif" font-size="13" font-weight="bold" lengthAdjust="spacing" textLength="18" x="35" y="1213.4419">29</text><text fill="#000000" font-family="sans-serif" font-size="13" lengthAdjust="spacing" textLength="66" x="57" y="1213.4419">Start Chat</text><polygon fill="#181818" points="342,1258.7734,352,1262.7734,342,1266.7734,346,1262.7734" style="stroke:#181818;stroke-width:1.0;"/><line style="stroke:#181818;stroke-width:1.0;" x1="175" x2="348" y1="1262.7734" y2="1262.7734"/><text fill="#000000" font-family="sans-serif" font-size="13" font-weight="bold" lengthAdjust="spacing" textLength="18" x="182" y="1250.1411">30</text><text fill="#000000" font-family="sans-serif" font-size="13" lengthAdjust="spacing" textLength="70" x="204" y="1242.5747">POST /chat</text><text fill="#000000" font-family="sans-serif" font-size="13" lengthAdjust="spacing" textLength="125" x="204" y="1257.7075">(payload: Question)</text><polygon fill="#181818" points="549,1287.9063,559,1291.9063,549,1295.9063,553,1291.9063" style="stroke:#181818;stroke-width:1.0;"/><line style="stroke:#181818;stroke-width:1.0;" x1="354" x2="555" y1="1291.9063" y2="1291.9063"/><text fill="#000000" font-family="sans-serif" font-size="13" font-weight="bold" lengthAdjust="spacing" textLength="18" x="361" y="1286.8403">31</text><text fill="#000000" font-family="sans-serif" font-size="13" lengthAdjust="spacing" textLength="66" x="383" y="1286.8403">Start Q&amp;A</text><polygon fill="#181818" points="1152.5,1317.0391,1162.5,1321.0391,1152.5,1325.0391,1156.5,1321.0391" style="stroke:#181818;stroke-width:1.0;"/><line style="stroke:#181818;stroke-width:1.0;" x1="561" x2="1158.5" y1="1321.0391" y2="1321.0391"/><text fill="#000000" font-family="sans-serif" font-size="13" font-weight="bold" lengthAdjust="spacing" textLength="18" x="568" y="1315.9731">32</text><text fill="#000000" font-family="sans-serif" font-size="13" lengthAdjust="spacing" textLength="317" x="590" y="1315.9731">Query LLM along with chat history (via LangChain)</text><polygon fill="#181818" points="186,1346.1719,176,1350.1719,186,1354.1719,182,1350.1719" style="stroke:#181818;stroke-width:1.0;"/><line style="stroke:#181818;stroke-width:1.0;" x1="180" x2="1163.5" y1="1350.1719" y2="1350.1719"/><text fill="#000000" font-family="sans-serif" font-size="13" font-weight="bold" lengthAdjust="spacing" textLength="18" x="192" y="1345.106">33</text><text fill="#000000" font-family="sans-serif" font-size="13" lengthAdjust="spacing" textLength="122" x="214" y="1345.106">Presents Response</text><!--SRC=[nLJTJzim47_FNt5F4qXDsSQUAdLI-HWR0gsKyLO97OdRU7Dioxu0sL_FsMb2Gg6JUDbJKz_v_FkuEwp8wAgy4ouXIKh0GlYg571iC2kInA8ZcKcBck362mVeu-yWSEJCmyipBaCpAmTdBfQ-pKBfsnAb7jiw56oUR5xivr-WNXyNd3SuFIwSAV7aQ9XwSPaaqobSax3mSGm_D3cJLnb9es4wJP88FlqQmK_WLEVneF9IhvUw1m3869Li68KBcyy9eBMCToHrBXx71PLggJqX8u2LLC8d6yRXpkPp0fcIGlDdk0afs9eAemzM2lsVfIv5Bf6C0uKrgySKmbt-cS3QKlh5fANK4agJ2mM2BShpY9R48wNT__GmzIKgrR7_D8ORgmpcW3g7kHFtKZo0rBQYg4GdHSUiYkb-uy_RyVEJxLXRlz6WBrmdmlpdzIyuQ8eaVQa3szRY2LicIQAIVqLqyqLYw_e4ZYgfSlXjxi2pUA5JdQrUbt-EpWkm-OfTXI1RFwjFmRDBRH-E0izEpS_ZDivXQnmDkgchSIRQ-AiId9so0gw93u6s7DiISVWMNUORMZKQp5aIIoFM1Wc-oo17FOB5x0oQgUakT7rr1JFkYLdRQnryViaQZZn8AeOWOC-Y3rC2n0vKwmAurvgEzVixkPoV_6SU7O3tSxX4oefmyTpS-N_JMOYLSIMscuw7ZllEYxY5_7jfk4rH4dbRToUVmJFFO_ED5rUO6jzKzRAK2fsacW6YuytRfkv2eZ2WY5LsOkZ6vt3SkFhgq5mJR_0Otx4tCWulDRzMX_t1cbKSPptVDgufU_LXjkLKrBmIhWwV3DWm_CWiF095qtcmTo_nsTNzBNVw-uB5yI9v0W00]--></g></svg>